<?xml version="1.0" standalone="no"?>
<!DOCTYPE svg PUBLIC "-//W3C//DTD SVG 20010904//EN"
 "http://www.w3.org/TR/2001/REC-SVG-20010904/DTD/svg10.dtd">
<svg version="1.0" xmlns="http://www.w3.org/2000/svg"
 width="460.000000pt" height="460.000000pt" viewBox="0 0 460.000000 460.000000"
 preserveAspectRatio="xMidYMid meet">
<metadata>
Created by potrace 1.14, written by Peter Selinger 2001-2017
</metadata>
<g transform="translate(0.000000,460.000000) scale(0.100000,-0.100000)"
fill="#000000" stroke="none">
<path d="M1941 3577 c-7 -19 -15 -23 -38 -20 -34 5 -76 -22 -55 -35 13 -9 7
-42 -8 -42 -5 0 -17 -3 -27 -6 -13 -4 -14 -3 -5 3 10 8 10 12 -2 22 -8 7 -20
10 -27 6 -8 -6 -8 -9 1 -15 7 -5 -1 -10 -22 -14 -38 -7 -65 -33 -60 -57 1 -9
-3 -21 -11 -27 -35 -29 46 -182 96 -182 52 -1 74 -44 84 -165 3 -38 10 -73 15
-76 6 -4 0 -10 -12 -14 -18 -6 -20 -9 -9 -16 11 -7 8 -14 -16 -33 -27 -23 -28
-25 -7 -21 25 4 28 -5 10 -23 -10 -10 -10 -15 1 -21 11 -7 8 -14 -13 -32 -24
-21 -25 -25 -11 -35 15 -11 14 -13 -4 -19 -12 -3 -25 -3 -31 0 -5 3 -10 -1
-10 -10 0 -9 5 -13 10 -10 6 3 10 -1 10 -9 0 -9 -7 -16 -16 -16 -22 0 -13 109
10 126 10 7 14 18 10 28 -6 16 -8 15 -27 -1 -19 -18 -20 -18 -8 5 12 22 11 23
-8 13 -14 -8 -22 -8 -26 0 -8 12 -30 7 -31 -7 -1 -9 -8 -29 -25 -72 -5 -13 -9
-33 -9 -45 0 -18 -2 -19 -10 -7 -8 11 -10 7 -11 -20 -2 -132 -4 -150 -13 -130
-5 11 -13 20 -17 20 -5 0 -6 7 -3 15 5 11 -2 15 -27 16 -24 0 -29 3 -16 7 9 4
-35 8 -98 9 l-115 1 -29 -33 c-16 -19 -32 -48 -36 -66 -6 -27 -3 -35 16 -50
13 -10 36 -19 52 -19 15 0 44 -11 65 -24 21 -13 52 -27 70 -30 17 -4 30 -13
29 -19 -1 -6 9 -13 23 -14 22 -2 23 -2 5 6 -19 8 -18 9 5 12 16 3 30 15 40 36
8 18 21 33 28 33 7 0 17 11 22 25 10 26 18 29 43 20 11 -5 12 -13 3 -40 -6
-19 -15 -35 -19 -35 -5 0 -5 -9 -2 -20 4 -14 1 -22 -11 -27 -18 -7 -54 -39
-54 -49 0 -3 5 -2 10 1 6 3 10 1 10 -4 0 -6 -4 -11 -8 -11 -4 0 -19 -25 -32
-55 -24 -54 -40 -70 -40 -40 0 8 -6 12 -15 9 -10 -4 -12 -15 -9 -34 4 -15 1
-36 -6 -47 -10 -16 -11 -16 -6 0 5 15 3 16 -15 6 -12 -6 -24 -20 -26 -30 -6
-22 -59 -54 -67 -41 -8 14 1 64 14 72 9 6 9 9 -1 12 -10 4 -7 12 12 30 15 14
34 28 43 31 9 4 19 20 22 36 4 17 14 33 24 36 10 3 21 12 24 20 3 10 0 12 -11
8 -11 -4 -14 -2 -9 5 5 8 -2 12 -20 12 -22 0 -25 -4 -21 -20 4 -17 2 -20 -14
-15 -15 5 -19 1 -19 -19 0 -19 -5 -26 -18 -26 -11 0 -30 -9 -43 -21 l-24 -21
-3 22 c-3 19 -5 20 -20 7 -9 -9 -38 -18 -63 -22 -41 -6 -48 -4 -62 15 -14 20
-16 21 -20 3 -4 -14 -5 -15 -6 -2 -2 32 -51 35 -51 3 0 -16 -65 -20 -75 -5 -3
6 -13 10 -23 10 -32 1 -87 14 -99 23 -7 6 -13 19 -13 28 0 10 -11 32 -25 48
-29 35 -31 42 -10 42 18 0 20 26 4 36 -7 4 -16 -1 -21 -10 -5 -9 -15 -16 -22
-16 -7 0 -13 -6 -13 -14 0 -25 -25 -76 -37 -74 -6 2 -26 -3 -44 -11 -25 -10
-35 -11 -46 -2 -19 16 -79 17 -84 3 -2 -7 -8 -12 -13 -12 -6 0 -8 4 -4 9 3 5
-7 11 -22 13 -26 3 -28 7 -31 52 -2 27 -10 59 -18 70 -17 24 -18 36 -4 36 6 0
20 9 32 20 20 18 20 20 4 20 -13 0 -17 5 -13 20 3 13 0 20 -9 20 -8 0 -14 5
-14 10 0 6 5 10 10 10 14 0 12 94 -2 108 -21 21 -252 11 -275 -11 -16 -17 29
-32 101 -35 44 -1 85 -7 93 -13 7 -6 13 -8 13 -3 0 4 5 3 12 -4 7 -7 20 -12
30 -12 10 0 18 -4 18 -10 0 -5 -4 -10 -8 -10 -17 0 -59 -46 -72 -77 -7 -18
-16 -33 -20 -33 -9 0 -34 52 -31 68 3 18 -64 15 -79 -3 -17 -21 -25 -19 -54
10 -19 19 -36 25 -73 26 -65 2 -87 -1 -91 -12 -2 -5 -12 -9 -22 -9 -26 0 -51
-11 -45 -20 3 -4 -6 -11 -20 -14 l-25 -6 0 -489 0 -488 42 -13 c24 -7 54 -14
68 -15 14 -1 65 -10 114 -20 67 -14 91 -16 94 -7 2 7 12 12 22 12 10 0 22 5
25 10 8 13 25 13 25 0 0 -5 -17 -19 -37 -30 -41 -22 -41 -22 44 -4 13 2 23 11
23 20 0 8 -4 13 -9 10 -5 -3 -11 1 -14 9 -4 9 7 22 30 36 70 44 317 46 377 3
11 -8 31 -14 44 -14 86 0 346 -99 377 -143 12 -17 19 -20 32 -11 10 6 21 22
25 35 5 15 6 7 3 -23 -5 -50 6 -68 30 -48 10 8 15 9 15 2 0 -6 -9 -16 -20 -22
-36 -19 -25 -49 48 -125 12 -13 22 -31 22 -39 0 -8 14 -19 30 -25 23 -8 30
-16 30 -36 0 -14 4 -24 9 -21 5 3 14 -1 21 -9 10 -12 7 -14 -22 -12 -18 1 -38
8 -43 15 -6 7 -31 16 -55 19 -25 3 -48 12 -53 19 -4 7 -32 25 -62 40 -30 16
-55 32 -55 37 0 5 18 16 40 24 22 9 37 19 35 24 -3 4 3 12 12 18 16 9 16 12 3
21 -19 13 -30 13 -30 0 0 -18 -29 -11 -106 25 -41 19 -83 35 -94 35 -10 0 -21
4 -24 8 -9 16 -120 35 -211 37 -113 3 -108 2 -101 21 5 14 -7 15 -104 12 -103
-3 -137 3 -90 15 11 3 20 10 20 16 0 16 -39 13 -56 -4 -20 -19 -43 -19 -50 0
-4 8 -10 12 -15 9 -5 -3 -7 -10 -4 -15 8 -12 -31 -12 -73 0 -35 11 -82 0 -82
-19 0 -5 9 -19 19 -29 19 -19 19 -20 -19 -40 -31 -16 -54 -20 -77 -12 -1 1 2
12 7 26 11 29 -3 33 -34 10 -11 -8 -30 -15 -42 -15 -27 0 -51 -25 -32 -33 9
-4 7 -6 -4 -6 -9 -1 -19 3 -22 8 -3 5 -14 11 -25 14 -18 4 -19 -2 -20 -109
l-2 -114 30 0 c16 0 33 -5 36 -11 4 -6 13 -8 20 -5 7 2 26 1 42 -3 15 -4 43
-4 61 0 17 4 35 3 38 -2 3 -5 18 -9 34 -9 43 0 77 -16 83 -39 6 -24 -11 -29
-19 -6 -8 21 -21 19 -27 -4 -5 -20 -81 -44 -102 -32 -5 3 4 9 20 12 17 4 26 7
21 8 -5 0 -3 7 3 15 10 11 7 14 -14 12 -27 -1 -33 -11 -12 -19 6 -3 -3 -6 -20
-6 -20 -1 -33 -6 -33 -14 0 -9 -10 -12 -30 -9 -38 5 -40 -14 -2 -30 48 -21
140 -24 252 -10 41 5 93 6 115 2 37 -7 38 -8 10 -10 -39 -4 -47 -5 -67 -14 -9
-4 -22 -5 -28 -1 -5 3 -10 2 -10 -4 0 -6 10 -13 23 -15 63 -13 105 -18 137
-18 34 1 224 -24 266 -34 12 -3 25 -1 29 6 4 7 11 8 18 2 7 -6 40 -13 74 -17
56 -6 64 -5 70 12 4 10 15 27 25 37 18 19 19 20 71 2 28 -10 59 -26 67 -35 8
-9 29 -18 45 -20 45 -5 64 -18 58 -41 -3 -10 -8 -19 -12 -18 -3 1 -19 -1 -36
-5 -16 -3 -49 -9 -72 -12 -55 -9 -57 -31 -3 -40 43 -7 45 -25 4 -25 -14 0 -22
4 -19 10 3 6 1 10 -4 10 -6 0 -11 -3 -11 -7 0 -5 -21 -9 -47 -9 -27 -1 -60 -5
-75 -9 -23 -6 -33 -2 -56 23 -28 30 -29 30 -52 12 -18 -13 -39 -17 -82 -16
-63 3 -94 16 -38 16 31 0 33 1 19 16 -13 12 -20 13 -42 3 -23 -10 -30 -9 -45
4 -14 13 -39 17 -108 17 -49 0 -104 -4 -122 -9 -25 -8 -43 -6 -75 8 -52 22
-275 30 -288 10 -4 -7 -14 -9 -25 -4 -11 5 -23 7 -27 6 -4 0 -21 6 -37 14
l-30 16 0 -265 c0 -203 3 -265 13 -269 9 -3 9 -7 0 -19 -7 -8 -10 -18 -6 -21
11 -12 73 -8 73 4 0 6 -9 9 -20 6 -11 -3 -22 -1 -26 4 -3 5 13 8 36 7 22 -1
36 -4 31 -8 -12 -7 -3 -50 10 -50 5 0 9 7 9 15 0 8 5 15 10 15 6 0 10 -7 10
-15 0 -18 16 -20 26 -3 4 7 3 8 -4 4 -8 -5 -10 -2 -6 8 5 14 9 13 30 -1 14 -8
28 -22 33 -31 5 -8 30 -18 56 -22 47 -7 50 -6 85 30 21 22 57 44 86 54 56 18
94 42 94 58 0 5 11 19 25 30 14 11 25 28 25 38 0 27 -29 52 -51 45 -11 -4 -19
-2 -19 4 0 6 4 11 10 11 5 0 7 6 4 14 -3 7 -17 13 -32 14 -46 0 -48 2 -22 22
21 16 22 20 7 20 -10 0 -15 4 -12 10 4 6 14 5 26 -3 18 -10 23 -9 36 10 9 13
23 23 32 22 10 0 11 -2 4 -6 -25 -9 -13 -20 18 -17 28 3 31 2 26 -18 -9 -33 7
-46 50 -39 26 4 41 13 48 29 5 12 15 22 22 22 6 0 18 8 25 18 7 9 24 23 38 30
l25 12 -27 -3 c-35 -5 -37 9 -3 17 14 4 25 13 25 21 0 19 24 19 40 0 9 -11 9
-15 1 -15 -7 0 -11 -6 -10 -12 2 -7 -5 -37 -14 -67 -17 -56 -22 -89 -11 -78 4
3 16 1 28 -5 21 -12 51 -15 191 -19 91 -3 181 19 209 50 15 16 22 18 36 9 14
-9 27 -8 57 4 45 19 86 19 79 1 -3 -7 -1 -13 4 -13 15 0 0 -28 -18 -33 -10 -3
-5 -5 11 -6 28 -1 39 -21 12 -21 -8 0 -15 -7 -15 -15 0 -15 -29 -35 -51 -35
-9 0 -9 3 1 14 6 8 17 13 24 10 8 -3 16 4 19 15 5 22 -7 29 -18 11 -4 -6 -11
-8 -16 -5 -5 4 -9 -1 -9 -9 0 -9 -6 -16 -14 -16 -8 0 -16 -16 -20 -40 -5 -33
-12 -43 -45 -59 -21 -11 -41 -17 -45 -14 -3 4 -6 1 -6 -5 0 -7 -5 -12 -10 -12
-6 0 -3 11 5 24 13 19 14 29 5 45 -6 13 -7 21 -1 21 5 0 13 -9 16 -20 6 -17 8
-18 21 -6 16 17 19 56 4 56 -6 0 -9 -3 -9 -7 1 -5 1 -17 0 -28 -1 -18 -2 -18
-17 4 -12 16 -19 20 -24 11 -12 -19 -140 -23 -140 -4 0 10 -12 14 -40 14 -22
0 -40 -4 -40 -10 0 -5 11 -10 24 -10 13 0 27 -7 30 -16 8 -21 8 -21 -10 -28
-8 -3 -13 -2 -10 2 3 5 -11 9 -30 9 -19 1 -34 -3 -34 -9 0 -5 3 -7 8 -4 4 2
18 -2 32 -10 25 -15 25 -15 -10 -10 -25 4 -31 3 -20 -4 8 -5 25 -10 38 -10
l24 0 -24 -29 c-18 -23 -29 -28 -48 -24 -14 4 -28 11 -32 17 -5 8 -8 7 -8 -1
0 -7 -5 -13 -11 -13 -5 0 -7 5 -4 10 3 6 -1 10 -9 10 -9 0 -13 6 -10 14 3 9
-2 13 -18 11 -13 -1 -29 -3 -35 -4 -7 0 -13 -10 -13 -21 0 -11 -3 -21 -7 -21
-30 -5 -63 -4 -63 3 0 4 7 8 16 8 14 0 14 3 4 15 -10 12 -10 15 1 15 10 0 10
3 1 12 -22 22 -14 41 13 34 14 -4 25 -2 25 4 0 5 -20 10 -44 10 -33 0 -45 -4
-50 -17 -3 -10 -19 -38 -36 -63 -16 -25 -32 -52 -36 -60 -3 -8 -14 -33 -25
-55 -18 -39 -20 -67 -6 -81 4 -4 7 -1 7 7 0 11 2 11 10 -1 9 -13 10 -13 10 0
1 12 4 11 15 -4 8 -10 12 -22 10 -27 -3 -4 -1 -10 5 -14 5 -3 10 3 10 15 0 16
4 19 18 12 9 -5 22 -7 28 -5 8 2 10 -7 8 -28 l-4 -32 20 23 c13 15 20 18 20 9
0 -11 2 -11 10 1 8 13 10 13 10 -2 0 -9 -6 -20 -12 -25 -18 -11 32 -20 115
-22 53 -1 67 2 67 14 0 8 -4 15 -10 15 -5 0 -10 5 -10 12 0 9 3 9 12 0 15 -15
28 -15 28 -1 0 5 -4 8 -9 5 -5 -3 -11 1 -14 8 -3 8 -1 17 6 20 9 3 8 7 -2 14
-11 8 -10 12 7 21 17 9 22 8 27 -9 6 -18 17 -24 38 -21 4 0 7 -6 7 -15 0 -8
-5 -12 -10 -9 -6 3 -10 2 -10 -3 0 -5 30 -7 67 -5 107 7 116 6 125 -11 5 -9
15 -16 23 -16 7 0 16 -6 18 -12 4 -9 6 -8 6 2 1 9 9 16 19 17 9 1 22 3 27 4
14 3 88 -12 100 -21 16 -12 255 -10 255 2 0 6 8 17 18 25 9 8 13 12 7 10 -5
-3 -26 -8 -46 -11 -20 -3 -43 -8 -52 -12 -11 -4 -19 0 -23 10 -3 9 -12 16 -20
16 -10 0 -13 7 -8 25 5 22 4 24 -12 18 -18 -6 -18 -6 -2 10 9 9 23 17 31 17
19 0 29 25 21 56 -4 14 -2 24 5 24 6 0 13 -11 17 -25 8 -31 34 -55 34 -31 0 9
3 16 8 17 4 0 15 2 24 4 10 2 22 -4 28 -13 5 -10 10 -14 10 -9 0 4 15 1 33 -6
17 -7 49 -12 70 -10 23 3 37 0 37 -7 0 -7 -12 -10 -27 -8 -25 3 -28 0 -25 -22
2 -19 0 -22 -10 -12 -19 19 -30 14 -18 -8 6 -11 17 -20 25 -20 9 0 12 -6 8
-17 -5 -15 -3 -15 11 2 10 11 14 14 10 6 -5 -10 -3 -11 11 -4 10 6 27 8 38 5
15 -4 18 -2 12 8 -5 8 -3 11 6 8 8 -3 13 -11 11 -17 -1 -8 2 -9 10 -5 7 5 20
9 28 11 8 1 17 8 19 14 2 7 13 22 25 34 12 12 20 28 18 37 -4 20 45 31 52 12
8 -21 24 -17 31 7 8 23 -11 42 -32 35 -6 -3 -14 1 -16 8 -3 8 1 13 10 12 9 0
18 6 20 14 4 13 3 13 -6 0 -12 -17 -16 -14 -25 23 -6 26 -5 27 24 22 19 -3 30
-1 30 6 0 7 -9 9 -22 6 -22 -6 -22 -6 -4 8 11 8 22 12 25 7 3 -4 19 -14 35
-22 16 -8 28 -19 27 -24 -2 -5 3 -13 11 -17 18 -12 58 -11 58 1 0 5 -8 7 -17
4 -15 -5 -16 -4 -3 5 23 16 41 13 38 -6 -2 -11 3 -18 12 -18 8 0 14 8 14 18
-1 12 5 17 25 16 17 -1 20 -3 9 -6 -10 -2 -18 -8 -19 -11 0 -4 -2 -16 -4 -27
-3 -17 2 -20 37 -22 48 -3 49 -4 50 -34 1 -13 10 -35 20 -48 21 -28 15 -45
-13 -31 -13 7 -19 7 -19 0 0 -5 -9 -10 -21 -10 -29 0 -15 -16 21 -23 38 -8 60
0 60 23 0 11 4 21 9 24 5 4 7 -3 4 -14 -4 -14 0 -20 11 -20 11 0 14 -5 10 -12
-5 -8 -2 -9 9 -5 20 7 22 -4 5 -21 -10 -10 100 -12 518 -12 l531 1 0 37 c1 37
1 37 -10 10 -15 -39 -35 -35 -34 6 0 19 5 32 10 29 9 -6 98 36 109 51 10 15
-3 36 -23 36 -10 0 -19 5 -19 10 0 6 -17 18 -37 28 -41 18 -55 31 -47 44 3 4
-2 8 -10 8 -9 0 -16 5 -16 11 0 6 -9 8 -21 4 -16 -5 -27 0 -45 21 -13 16 -23
23 -24 16 0 -23 -100 8 -100 30 0 5 3 7 8 7 21 -4 32 2 26 13 -5 7 -2 9 9 5 8
-3 21 1 28 9 11 13 10 15 -3 12 -10 -1 -24 6 -32 17 -15 19 -15 19 -16 -12 0
-23 -5 -33 -15 -33 -8 0 -15 4 -15 9 0 4 -11 6 -25 3 -28 -5 -24 -22 6 -22 10
0 19 -6 19 -14 0 -20 -131 -12 -146 9 -6 8 -25 20 -43 26 -17 6 -28 15 -25 20
3 5 15 2 27 -6 27 -19 51 -19 66 -1 17 20 4 43 -32 56 -51 19 -61 26 -74 51
-10 18 -13 20 -13 7 0 -22 -9 -23 -38 -2 -20 14 -23 14 -28 0 -4 -11 -14 -14
-30 -11 -13 3 -35 7 -49 10 -14 3 -25 9 -25 14 0 5 16 5 37 0 21 -4 39 -6 41
-4 7 7 -9 25 -22 25 -18 0 -14 42 4 47 13 4 13 3 0 -6 -13 -10 -13 -12 0 -21
10 -6 16 -6 19 1 1 6 8 4 15 -5 6 -8 30 -17 54 -21 35 -6 41 -4 36 8 -3 10 3
20 15 27 14 7 21 7 21 0 0 -5 11 -10 24 -10 14 0 28 -5 32 -11 4 -6 20 -9 38
-6 24 4 35 1 44 -13 12 -19 102 -50 145 -50 31 0 43 16 27 35 -9 10 -9 15 -1
15 6 0 18 -14 27 -31 15 -29 15 -31 0 -26 -20 8 -21 0 -2 -19 17 -16 30 -19
21 -4 -3 6 1 7 9 4 9 -3 16 -10 16 -14 0 -5 13 -3 30 3 38 14 40 32 3 22 l-28
-7 24 21 24 21 -29 1 c-25 0 -26 2 -9 8 25 10 45 3 45 -16 0 -17 39 -9 56 13
12 16 44 19 44 5 0 -5 9 -7 20 -4 11 3 20 1 20 -5 0 -6 10 -8 23 -6 20 4 20 4
2 -4 -20 -9 -49 -8 -75 2 -8 3 -22 2 -30 -3 -12 -8 -12 -13 4 -30 18 -20 43
-30 32 -13 -7 12 88 11 95 -1 4 -5 15 -5 28 2 12 7 26 9 31 6 5 -3 7 0 4 8 -3
9 0 14 8 14 7 -1 13 3 14 8 0 6 -9 9 -20 8 -18 -2 -17 -1 4 8 17 7 32 7 48 0
30 -14 41 -13 21 2 -8 7 -18 20 -22 30 -6 15 -3 17 16 11 12 -3 19 -3 15 1 -4
4 -1 14 7 22 8 8 15 20 15 26 -1 7 -6 5 -13 -4 -14 -18 -32 -14 -61 12 -16 15
-17 21 -6 34 10 12 9 19 -4 40 -9 14 -23 25 -32 25 -8 0 -13 4 -9 9 3 6 19 4
38 -4 37 -15 117 -18 117 -4 0 6 -8 12 -17 15 -66 22 -95 44 -58 44 8 0 15 4
15 8 0 11 -59 32 -65 22 -3 -4 2 -11 11 -14 18 -7 9 -26 -12 -26 -17 0 -38
-18 -47 -40 -3 -10 -6 -7 -6 8 -1 25 -16 30 -25 7 -3 -8 0 -15 6 -15 6 0 8 -3
5 -6 -10 -11 -71 23 -111 61 -42 40 -76 56 -153 74 -29 7 -53 17 -53 22 0 10
61 0 75 -12 16 -15 28 -10 22 11 -5 18 -4 18 19 3 13 -8 31 -13 39 -9 10 4 15
1 13 -9 -2 -7 0 -14 5 -14 22 -2 24 1 14 23 -7 13 -19 23 -27 21 -9 -2 -27 5
-41 16 -18 14 -20 19 -7 19 9 0 18 6 21 13 3 7 9 2 15 -13 6 -14 11 -21 11
-17 1 4 10 3 21 -3 16 -8 20 -8 20 4 0 29 29 4 36 -30 4 -24 12 -34 25 -34 11
0 19 4 19 9 0 5 11 8 25 7 14 0 25 -4 25 -8 0 -4 13 -5 29 -2 20 4 30 2 34
-10 4 -9 12 -16 20 -16 7 0 24 -11 37 -25 13 -14 20 -25 15 -25 -16 0 44 -40
65 -43 12 -2 25 -8 28 -14 4 -5 16 -15 27 -22 l20 -13 -20 7 c-14 4 -9 -5 18
-33 20 -21 34 -42 30 -47 -5 -5 -1 -4 8 3 13 10 19 8 34 -8 10 -11 14 -20 9
-20 -5 0 -10 -11 -10 -23 -1 -21 3 -24 33 -25 20 -1 41 -7 49 -13 13 -11 94
-4 94 9 0 3 -7 14 -17 24 -16 17 -15 18 18 11 19 -3 61 -19 94 -35 33 -15 66
-28 73 -28 6 0 12 -5 12 -10 0 -6 15 -8 39 -4 29 5 39 2 44 -9 3 -8 19 -18 35
-21 16 -4 29 -13 29 -21 0 -19 -5 -19 -24 0 -8 8 -19 12 -25 9 -19 -12 -67
-14 -73 -4 -3 6 -11 10 -18 10 -8 0 -8 -3 0 -11 14 -14 83 -29 83 -18 0 15 22
10 42 -8 15 -14 21 -15 27 -4 6 9 11 10 15 2 18 -29 26 -4 26 82 -1 88 -2 93
-27 111 -14 11 -23 14 -19 8 8 -14 -19 -15 -49 -2 -18 8 -17 9 8 9 16 1 26 5
23 10 -3 4 6 6 21 3 22 -4 25 -2 20 12 -4 10 -7 22 -7 27 0 5 -5 9 -12 9 -6 0
-45 17 -87 37 l-75 37 32 10 c46 13 40 24 -19 32 -33 4 -47 10 -40 17 13 13
139 -1 148 -17 5 -7 17 -15 28 -18 11 -3 28 -9 38 -13 15 -6 17 -1 17 39 0 37
-3 46 -17 46 -15 0 -16 2 -3 10 22 14 -8 22 -61 17 -24 -3 -59 2 -77 9 -30 12
-35 11 -52 -6 -23 -23 -32 -24 -47 -9 -14 14 6 59 27 59 11 0 8 6 -8 18 -18
14 -20 20 -10 30 9 9 7 12 -12 11 -14 0 -34 -4 -45 -9 l-20 -9 20 -1 c11 -2
23 -2 28 -1 4 0 7 -4 7 -10 0 -5 -10 -9 -22 -7 -18 2 -23 -2 -21 -17 2 -19 -4
-21 -75 -22 -86 -2 -144 13 -120 31 8 6 17 19 21 29 4 10 10 16 15 13 4 -2 27
8 49 23 52 35 127 44 301 36 l122 -6 0 349 c0 323 -1 350 -18 365 -16 15 -21
15 -46 2 -16 -8 -33 -15 -38 -15 -5 0 -17 -7 -25 -16 -11 -10 -25 -14 -42 -9
-14 3 -43 8 -64 10 -22 1 -60 6 -85 11 -26 4 -59 6 -74 5 -22 -2 -28 2 -28 18
0 17 -6 21 -31 21 -18 0 -46 9 -64 20 -26 16 -38 18 -59 10 -14 -5 -26 -14
-26 -19 0 -17 -37 -18 -106 -5 -38 7 -95 13 -126 14 -31 0 -60 5 -63 10 -3 6
-15 10 -25 10 -25 0 -40 29 -40 79 0 46 -28 72 -49 47 -8 -10 -9 -16 -1 -21 5
-3 10 -10 10 -16 0 -14 -43 -10 -64 6 -18 13 -23 12 -53 -11 -19 -14 -37 -23
-41 -19 -3 3 0 10 8 15 9 6 10 10 3 10 -6 0 -18 -6 -25 -13 -7 -7 -21 -16 -30
-20 -11 -4 -18 -17 -18 -32 0 -18 -5 -25 -20 -25 -11 0 -20 -4 -20 -10 0 -5 5
-10 10 -10 6 0 10 -5 10 -11 0 -8 -5 -7 -15 1 -22 18 -31 4 -11 -16 26 -25 16
-48 -24 -55 -24 -4 -28 -7 -11 -8 20 -1 22 -3 10 -17 -11 -14 -9 -20 16 -43
25 -22 30 -35 33 -81 2 -30 7 -59 12 -64 8 -8 5 -50 -7 -86 -6 -19 -53 94 -53
127 0 13 -9 32 -20 43 -12 12 -18 25 -15 31 4 5 2 15 -3 22 -6 7 -13 32 -16
57 -3 25 -9 65 -12 90 -4 26 -14 50 -24 57 -21 15 -54 107 -47 127 3 8 1 18
-5 24 -5 5 -20 45 -33 88 -13 44 -24 71 -24 62 -1 -10 -4 -18 -8 -18 -14 1
-62 79 -53 85 6 3 10 12 10 18 0 7 -4 6 -10 -3 -8 -12 -10 -12 -10 -1 0 8 -20
38 -45 67 -25 28 -45 58 -45 64 0 15 -142 155 -153 152 -4 -1 -7 3 -5 10 1 7
-3 22 -9 34 -10 17 -9 23 6 36 11 10 23 42 30 83 11 59 10 70 -4 85 -9 10 -23
16 -31 13 -8 -3 -14 0 -14 7 0 6 5 8 10 5 14 -9 12 12 -5 45 -11 22 -12 30 -2
33 9 4 9 6 0 6 -7 1 -13 6 -13 11 0 7 6 7 20 0 18 -10 19 -8 16 20 -3 24 4 38
31 66 18 19 31 39 27 45 -3 5 -3 27 1 49 5 31 12 41 36 49 25 8 29 7 30 -7 0
-11 3 -12 6 -4 2 6 9 10 14 7 4 -3 31 10 60 28 28 19 46 38 41 41 -6 3 -13 20
-17 36 -4 17 -11 30 -16 30 -4 0 -12 15 -17 33 -7 27 -13 33 -40 35 -18 2 -32
9 -33 15 -1 7 -2 20 -3 29 -1 21 -63 54 -93 50 -24 -4 -39 -34 -26 -54 4 -7 6
-21 5 -30 -2 -10 2 -18 8 -18 6 0 9 -4 6 -9 -4 -5 0 -12 6 -14 11 -4 11 -6 0
-6 -6 -1 -22 11 -35 25 -57 66 -82 87 -113 94 -22 5 -35 4 -38 -4 -2 -6 -5 -3
-5 6 -2 37 -120 66 -139 33 -5 -11 -26 -16 -65 -18 -32 -1 -52 2 -47 7 19 19
-3 36 -47 36 -46 0 -51 -13 -9 -30 19 -8 18 -9 -7 -7 -16 1 -29 8 -33 19 -6
20 -40 25 -46 6 -3 -7 -9 -8 -18 -3 -17 10 -137 10 -162 0 -22 -9 -24 -25 -3
-25 8 0 15 -4 15 -10 0 -5 -5 -10 -11 -10 -16 0 -41 29 -34 40 3 5 -1 10 -10
10 -12 0 -7 8 14 26 18 15 31 35 31 49 0 19 -9 26 -55 40 -54 17 -69 30 -41
37 12 3 12 5 0 16 -12 11 -16 9 -23 -11z m-31 -67 c0 -5 -4 -10 -10 -10 -5 0
-10 5 -10 10 0 6 5 10 10 10 6 0 10 -4 10 -10z m67 -35 c2 -11 -15 -11 -61 -2
-47 10 -42 17 10 14 27 -2 50 -7 51 -12z m548 -105 c3 -5 -3 -10 -15 -10 -12
0 -18 5 -15 10 3 6 10 10 15 10 5 0 12 -4 15 -10z m332 -76 c-3 -3 -12 -4 -19
-1 -8 3 -5 6 6 6 11 1 17 -2 13 -5z m-257 -18 c0 -11 -19 -15 -25 -6 -3 5 1
10 9 10 9 0 16 -2 16 -4z m-194 -257 c16 -7 34 -11 39 -10 6 2 34 -3 63 -10
53 -13 72 -30 70 -65 0 -10 3 -27 7 -36 4 -11 3 -18 -4 -18 -6 0 -11 -7 -11
-15 0 -8 5 -15 12 -15 6 0 8 -3 5 -7 -4 -3 -2 -12 4 -20 9 -10 7 -13 -10 -13
-23 0 -29 -16 -8 -23 6 -2 10 -7 7 -10 -3 -3 -16 3 -30 14 -25 19 -25 19 -5
35 14 11 16 18 8 21 -16 6 -17 43 -2 43 6 0 9 6 6 13 -2 6 -10 11 -17 9 -7 -2
-20 4 -30 13 -19 17 -110 65 -110 57 0 -2 10 -14 23 -25 l22 -19 -24 7 c-21 6
-23 5 -18 -14 4 -18 2 -21 -14 -16 -10 4 -19 2 -19 -4 0 -5 7 -11 15 -13 13
-3 13 -7 1 -29 -9 -18 -10 -32 -4 -43 8 -15 6 -15 -22 -4 -17 7 -31 17 -30 22
3 15 -23 25 -50 21 -24 -4 -24 -4 3 7 34 15 35 28 1 28 -19 0 -25 5 -22 18 2
12 16 18 48 22 38 5 41 7 23 13 -25 9 -30 23 -10 30 8 3 6 9 -8 20 -19 15 -19
16 15 25 19 5 38 8 41 6 3 -2 19 -9 35 -15z m-227 -21 c10 -16 10 -23 2 -26
-6 -2 -11 -10 -11 -18 0 -15 -12 -17 -49 -7 l-24 6 22 16 c21 16 21 17 -21 17
-24 1 -33 -1 -20 -3 32 -6 17 -23 -22 -23 -43 0 -50 -9 -23 -31 l22 -18 -25
-1 c-25 -1 -25 -1 -5 -17 19 -15 19 -15 -7 -9 -14 3 -34 9 -45 13 -15 6 -16 4
-5 -9 11 -14 8 -16 -22 -20 -32 -3 -33 -2 -25 19 6 15 5 23 -2 23 -7 0 -4 11
6 27 16 23 16 25 1 20 -10 -4 -16 -1 -16 8 0 8 10 17 23 19 12 3 49 11 82 19
96 23 148 21 164 -5z m-7 -81 l-23 -13 26 -14 26 -14 -28 -15 c-16 -8 -23 -16
-15 -18 24 -9 11 -19 -18 -15 -37 5 -39 28 -4 45 l27 12 -23 5 c-22 5 -22 6
-6 23 10 9 27 17 39 17 l22 -1 -23 -12z m549 -7 c13 -10 19 -19 13 -20 -7 0
-22 9 -35 20 -13 10 -19 19 -13 20 7 0 22 -9 35 -20z m10 -52 c1 -29 -1 -96
-3 -126 -2 -20 -4 -21 -14 -8 -6 9 -20 16 -30 16 -16 0 -16 2 -4 10 12 8 12
10 -3 16 -9 3 -14 10 -11 16 3 5 11 5 17 0 7 -5 20 -12 30 -15 15 -6 16 -4 7
13 -6 11 -17 20 -25 20 -8 0 -15 7 -15 15 0 8 9 15 20 15 26 0 25 7 -2 31
l-23 18 28 1 c21 0 27 -5 28 -22z m-756 -8 c-28 -12 -57 -12 -50 0 3 6 21 10
38 9 27 0 29 -2 12 -9z m240 -8 c-3 -3 -11 0 -18 7 -9 10 -8 11 6 5 10 -3 15
-9 12 -12z m95 -12 c8 -5 11 -10 5 -10 -5 0 -17 5 -25 10 -8 5 -10 10 -5 10 6
0 17 -5 25 -10z m-350 -10 c11 -7 5 -10 -22 -10 -21 0 -38 5 -38 10 0 13 40
13 60 0z m831 -117 c-11 -4 -11 -7 0 -14 7 -4 11 -10 8 -13 -2 -3 -11 -1 -18
3 -15 10 -6 31 12 30 8 0 7 -3 -2 -6z m-932 -77 c-9 -8 -10 -7 -5 7 3 10 7 26
7 35 1 9 4 6 6 -7 3 -13 -1 -28 -8 -35z m36 -116 c-15 -16 -25 -34 -22 -42 4
-9 6 -8 6 3 1 16 19 29 51 35 17 3 30 -13 30 -38 0 -25 -21 -22 -27 3 -6 21
-7 21 -19 4 -12 -15 -11 -20 4 -31 15 -12 13 -17 -29 -58 -34 -32 -50 -41 -58
-33 -13 13 -15 37 -2 37 12 0 13 118 1 125 -4 3 -16 -2 -24 -11 -15 -14 -16
-13 -16 10 0 29 19 45 30 25 6 -9 11 -5 15 14 8 29 20 35 28 15 3 -9 11 -5 23
12 l18 24 9 -33 c7 -29 5 -37 -18 -61z m55 71 c5 -11 10 -28 9 -38 0 -14 -2
-15 -6 -3 -4 8 -12 21 -20 28 -7 7 -13 18 -13 23 0 16 19 10 30 -10z m32 -43
c-7 -7 -12 -8 -12 -2 0 6 3 14 7 17 3 4 9 5 12 2 2 -3 -1 -11 -7 -17z m-1478
-27 c3 -4 -1 -17 -9 -27 -14 -18 -14 -18 -15 9 0 26 13 36 24 18z m1456 -108
c0 -13 -3 -13 -15 -3 -8 7 -12 16 -9 21 8 13 24 1 24 -18z m-162 -32 c-29 -36
-34 -32 -13 8 9 18 20 29 26 26 5 -4 0 -18 -13 -34z m192 15 c0 -3 -4 -8 -10
-11 -5 -3 -10 -1 -10 4 0 6 5 11 10 11 6 0 10 -2 10 -4z m-186 -71 c-3 -14 -2
-25 4 -25 13 0 24 29 15 42 -3 6 -1 8 5 4 6 -3 10 -19 10 -35 -1 -15 2 -33 6
-40 9 -15 -7 -14 -22 1 -14 14 -17 11 -27 -21 -6 -19 -4 -23 8 -18 13 5 13 0
-1 -36 -15 -38 -17 -39 -22 -16 -4 13 -3 26 2 27 4 2 6 7 3 12 -12 19 -8 112
6 121 20 12 20 12 13 -16z m-134 6 c0 -6 -4 -13 -10 -16 -5 -3 -10 1 -10 9 0
9 5 16 10 16 6 0 10 -4 10 -9z m330 -104 c0 -5 -4 -6 -9 -2 -5 3 -12 -5 -14
-17 -5 -21 -5 -20 -4 2 2 31 -23 66 -35 47 -11 -17 -10 -29 1 -22 5 3 12 1 15
-4 8 -13 -4 -42 -15 -35 -5 3 -9 -2 -9 -10 0 -9 -3 -16 -7 -16 -7 0 -8 30 -4
92 2 28 34 27 58 -1 13 -14 23 -30 23 -34z m-104 -9 c-14 -8 -15 -55 -2 -77 4
-7 5 -19 2 -28 -4 -8 -2 -21 3 -27 11 -12 -3 -45 -14 -34 -5 5 -16 87 -19 140
0 9 -4 14 -8 12 -9 -6 -10 12 -2 44 l7 23 24 -22 c19 -19 21 -24 9 -31z m-196
28 c0 -3 -4 -8 -10 -11 -5 -3 -10 -1 -10 4 0 6 5 11 10 11 6 0 10 -2 10 -4z
m137 -18 c-3 -8 -6 -5 -6 6 -1 11 2 17 5 13 3 -3 4 -12 1 -19z m165 -60 c-7
-7 -12 -8 -12 -2 0 6 3 14 7 17 3 4 9 5 12 2 2 -3 -1 -11 -7 -17z m-61 -99
l-20 -21 6 23 c3 13 11 30 17 38 9 12 11 12 14 -2 2 -9 -6 -26 -17 -38z m-514
2 c-1 -9 -12 -30 -23 -46 -21 -29 -50 -103 -46 -117 1 -4 -5 -23 -14 -43 -8
-20 -14 -53 -14 -73 1 -36 -5 -82 -10 -92 -2 -3 -4 -9 -5 -15 -1 -5 -5 -30
-10 -55 -13 -61 -13 -61 -14 -97 0 -18 -4 -33 -9 -33 -4 0 -7 34 -7 75 0 54
-4 75 -13 77 -9 2 -7 10 8 26 12 13 19 29 17 37 -3 7 3 30 14 51 22 44 25 80
7 86 -9 3 -8 9 4 21 11 11 15 29 13 52 -2 19 0 37 4 39 4 3 8 19 9 37 2 18 10
41 19 51 9 10 13 18 9 18 -4 0 -1 6 6 13 17 19 58 9 55 -12z m567 12 c6 -15 8
-15 16 -3 7 11 10 8 10 -12 0 -36 -11 -35 -33 2 -10 17 -14 30 -9 30 6 0 13
-8 16 -17z m-136 -32 c3 -16 0 -22 -10 -18 -7 2 -12 10 -10 16 1 6 -3 11 -8
11 -15 0 -34 -54 -21 -58 6 -2 11 -10 11 -18 0 -9 5 -12 12 -8 6 4 2 -8 -10
-28 -22 -35 -30 -74 -14 -64 5 3 6 -9 3 -27 l-5 -32 -7 30 c-4 17 -7 64 -8
106 -1 63 2 79 20 98 25 26 43 23 47 -8z m59 -202 c2 -30 6 -60 8 -66 6 -16
-17 -17 -33 -1 -9 9 -12 9 -12 0 0 -7 5 -12 11 -12 8 0 7 -5 -2 -16 -12 -14
-14 -14 -21 6 -4 12 -4 47 1 78 5 32 7 60 4 65 -2 4 -1 12 3 18 13 22 36 -19
41 -72z m53 68 c0 -8 -10 -22 -21 -33 -21 -19 -21 -19 -17 1 2 11 10 19 17 17
9 -2 11 3 8 13 -4 8 -2 15 3 15 6 0 10 -6 10 -13z m32 -31 c-3 -5 -9 -1 -12
10 -4 10 -5 23 -2 28 3 5 9 1 12 -10 4 -10 5 -23 2 -28z m-13 -25 c13 -8 19
-77 7 -89 -4 -3 -6 7 -4 24 3 42 -9 58 -28 39 -15 -15 -34 -20 -34 -10 0 3 6
14 12 25 14 22 25 24 47 11z m-19 -60 c0 -11 -4 -22 -9 -25 -5 -3 -8 5 -7 19
1 29 16 34 16 6z m850 -29 c0 -13 -12 -22 -22 -16 -10 6 -1 24 13 24 5 0 9 -4
9 -8z m80 -110 c0 -23 -38 -46 -54 -33 -7 6 -22 8 -34 4 -22 -5 -25 -2 -36 49
-5 21 0 33 21 53 l28 25 38 -40 c20 -23 37 -49 37 -58z m-1054 53 c-17 -17
-21 -9 -10 20 5 11 10 13 17 6 6 -6 4 -15 -7 -26z m1932 -5 c2 -19 8 -39 13
-44 15 -16 10 -26 -13 -25 -13 0 -17 3 -10 6 18 7 15 23 -6 23 -29 0 -68 -22
-78 -44 -14 -32 -42 -32 -56 0 -11 24 -10 28 11 43 12 9 39 31 59 48 48 43 76
40 80 -7z m-1817 7 c-10 -9 -11 -8 -5 6 3 10 9 15 12 12 3 -3 0 -11 -7 -18z
m-144 -39 c-3 -7 -5 -2 -5 12 0 14 2 19 5 13 2 -7 2 -19 0 -25z m10 -50 c-3
-8 -6 -5 -6 6 -1 11 2 17 5 13 3 -3 4 -12 1 -19z m1793 -64 c0 -8 -7 -14 -15
-14 -17 0 -18 2 -9 24 7 18 24 12 24 -10z m-735 -20 l30 -7 -42 -10 c-45 -10
-73 4 -73 38 0 15 3 15 28 1 15 -8 41 -18 57 -22z m875 -14 c0 -5 -8 -10 -19
-10 -10 0 -33 -3 -50 -6 -24 -5 -31 -3 -31 10 0 13 11 16 50 16 28 0 50 -4 50
-10z m-2248 -17 c-6 -2 -9 -10 -5 -16 4 -7 0 -8 -11 -4 -9 4 -15 3 -12 -2 3
-5 -7 -31 -22 -57 l-27 -49 -3 44 c-3 35 1 49 20 67 13 13 34 23 48 23 14 0
19 -3 12 -6z m2118 -13 c22 -11 43 -20 47 -19 21 3 33 -2 33 -16 0 -10 -10
-15 -28 -15 -15 0 -33 -5 -39 -11 -13 -13 -80 -1 -87 16 -2 7 -3 21 -1 31 2
11 4 22 4 27 2 13 31 8 71 -13z m-3486 -116 c9 -25 7 -74 -4 -74 -5 0 -7 13
-4 29 4 16 1 32 -5 35 -13 9 -15 26 -2 26 5 0 12 -7 15 -16z m559 -14 c6 -25
-9 -36 -29 -20 -11 10 -12 16 -3 26 16 19 26 17 32 -6z m2687 10 c0 -11 -40
-34 -47 -26 -8 8 8 27 18 21 5 -4 9 -1 9 4 0 6 5 11 10 11 6 0 10 -4 10 -10z
m-1940 -16 c0 -8 -4 -12 -10 -9 -5 3 -10 10 -10 16 0 5 5 9 10 9 6 0 10 -7 10
-16z m-1127 -15 c-6 -6 -19 -9 -29 -6 -17 3 -16 5 6 14 28 12 39 8 23 -8z
m435 -2 c7 -7 7 -18 2 -27 -7 -11 -11 -11 -24 -1 -9 8 -16 20 -16 27 0 18 24
18 38 1z m-291 -11 c23 6 42 -13 20 -21 -18 -8 -67 12 -67 26 0 8 4 8 13 1 7
-6 22 -9 34 -6z m3158 -6 c-3 -5 -10 -10 -16 -10 -5 0 -9 5 -9 10 0 6 7 10 16
10 8 0 12 -4 9 -10z m-3371 -29 c6 -9 -54 -24 -63 -16 -7 8 20 25 41 25 9 0
19 -4 22 -9z m3316 5 c0 -11 -19 -15 -25 -6 -3 5 1 10 9 10 9 0 16 -2 16 -4z
m-2469 -37 c14 -14 28 -19 45 -15 l24 6 -17 -42 c-18 -46 -82 -118 -104 -118
-17 0 -77 -22 -106 -38 -16 -9 -24 -9 -29 -1 -7 12 12 28 36 29 8 1 4 6 -10
11 l-25 10 23 19 c28 23 20 44 -14 37 -13 -2 -24 0 -24 4 0 5 6 9 13 9 6 0 28
16 47 35 19 19 40 35 47 35 7 0 13 4 13 8 0 8 36 30 53 31 4 1 16 -8 28 -20z
m-471 -59 c0 -5 -4 -10 -10 -10 -5 0 -10 5 -10 10 0 6 5 10 10 10 6 0 10 -4
10 -10z m817 -6 c-3 -3 -12 -4 -19 -1 -8 3 -5 6 6 6 11 1 17 -2 13 -5z m2149
-29 c72 -13 136 -70 140 -125 1 -8 2 -22 3 -31 1 -12 17 -18 67 -22 37 -4 72
-11 79 -17 6 -5 25 -12 41 -14 45 -7 74 -17 74 -27 0 -5 18 -16 40 -25 41 -16
53 -34 24 -34 -9 0 -29 8 -45 17 -24 14 -36 15 -69 6 -38 -10 -42 -9 -57 13
-8 14 -25 24 -37 23 -20 0 -20 -1 2 -10 13 -5 20 -13 17 -19 -4 -7 -14 -5 -28
5 -12 8 -28 15 -37 15 -8 0 -26 9 -40 20 -14 11 -31 20 -38 20 -20 0 -55 37
-43 45 25 15 7 21 -41 14 -59 -9 -94 2 -62 19 11 6 26 10 34 9 8 -1 16 3 17 8
2 6 -6 10 -18 10 -11 0 -24 7 -29 15 -7 12 -12 12 -28 -3 -28 -26 -32 -22 -32
32 0 28 -4 53 -10 56 -5 3 -10 13 -10 22 0 14 2 14 24 0 12 -9 41 -19 62 -22z
m-356 -5 c0 -22 -5 -30 -17 -31 -71 -2 -107 -15 -100 -33 7 -17 -33 -30 -48
-15 -7 7 -4 15 9 24 18 14 18 15 -5 34 -22 18 -23 20 -6 27 10 3 30 2 43 -5
19 -8 24 -8 18 0 -5 9 5 10 39 6 38 -5 47 -4 47 8 0 8 5 15 10 15 6 0 10 -13
10 -30z m-2395 -20 c7 -12 -2 -12 -30 0 -19 8 -19 9 2 9 12 1 25 -3 28 -9z
m2497 -18 c5 -17 0 -19 -35 -18 -50 2 -58 18 -15 32 39 12 44 10 50 -14z
m-2513 -8 c10 -9 -11 -17 -45 -18 -41 -1 -58 20 -22 27 22 4 58 -1 67 -9z
m533 -1 c27 -33 29 -42 8 -40 -10 1 -22 7 -24 14 -3 7 -15 13 -26 13 -37 0
-23 20 21 29 3 0 13 -7 21 -16z m-666 -3 c8 0 14 -6 14 -13 0 -9 -22 -17 -62
-23 -43 -6 -62 -13 -60 -22 1 -8 -5 -13 -15 -12 -31 4 -39 0 -23 -10 11 -7 7
-10 -17 -10 -17 0 -34 4 -37 9 -6 9 36 31 60 31 8 0 27 14 41 31 22 26 31 30
56 25 16 -3 36 -6 43 -6z m2531 -43 c13 5 15 2 10 -11 -4 -10 -7 -22 -7 -27 0
-15 -22 -10 -36 9 -7 9 -14 28 -14 42 l0 24 15 -21 c10 -14 21 -20 32 -16z
m-2497 -7 c0 -5 -8 -10 -17 -10 -15 0 -16 2 -3 10 19 12 20 12 20 0z m2681 -5
c-1 -15 -24 -12 -29 3 -3 9 2 13 12 10 10 -1 17 -7 17 -13z m-2721 -5 c0 -5
-2 -10 -4 -10 -3 0 -8 5 -11 10 -3 6 -1 10 4 10 6 0 11 -4 11 -10z m2561 -50
c25 -14 25 -30 -1 -23 -11 3 -18 9 -15 13 3 5 -1 11 -7 13 -7 3 -9 6 -5 6 5 1
17 -4 28 -9z m745 0 c13 0 24 -5 24 -12 0 -6 -3 -8 -7 -5 -3 4 -11 3 -17 -2
-7 -6 -26 -3 -51 10 l-40 19 34 -5 c18 -3 44 -5 57 -5z m-2706 -19 c0 -5 10
-9 23 -9 55 0 108 -15 103 -28 -3 -8 0 -14 6 -14 7 0 6 -5 -2 -15 -11 -13 -10
-14 2 -10 9 4 15 0 15 -10 0 -32 -36 -14 -54 28 -12 25 -33 38 -33 18 0 -18
-51 -8 -69 15 -10 13 -21 20 -25 17 -3 -3 -6 -1 -6 5 0 7 9 12 20 12 11 0 20
-4 20 -9z m1870 -1 c13 -8 13 -10 -2 -10 -9 0 -20 5 -23 10 -8 13 5 13 25 0z
m50 -21 c0 -6 -4 -7 -10 -4 -5 3 -10 11 -10 16 0 6 5 7 10 4 6 -3 10 -11 10
-16z m-72 -13 c17 0 32 -2 32 -5 0 -7 30 -10 112 -14 31 -2 55 0 53 4 -8 12
90 -3 105 -17 12 -12 12 -16 1 -26 -11 -10 -12 -10 -7 0 9 15 6 15 -39 -3 -20
-9 -46 -15 -57 -13 -12 2 -23 -3 -26 -11 -3 -11 2 -12 23 -7 17 4 24 3 20 -4
-3 -5 -22 -10 -42 -10 -30 0 -34 2 -24 14 10 12 6 17 -26 25 -21 6 -44 11 -51
11 -7 0 -11 3 -9 8 3 4 -7 7 -21 8 -116 1 -131 4 -159 30 l-27 25 54 -7 c30
-4 70 -8 88 -8z m157 -4 c-3 -3 -11 0 -18 7 -9 10 -8 11 6 5 10 -3 15 -9 12
-12z m762 -18 c-9 -9 -28 6 -21 18 4 6 10 6 17 -1 6 -6 8 -13 4 -17z m-497
-14 c0 -5 -7 -7 -15 -4 -8 4 -15 8 -15 10 0 2 7 4 15 4 8 0 15 -4 15 -10z
m-2077 -30 c-13 -5 -23 -14 -23 -20 0 -5 -16 -10 -35 -10 -19 0 -35 -4 -35
-10 0 -5 -16 -10 -37 -10 -38 0 -41 7 -7 13 27 6 55 16 84 32 14 7 36 13 50
13 25 1 25 1 3 -8z m1772 -10 c18 -7 18 -9 3 -15 -10 -4 -27 0 -40 9 -21 15
-21 16 -3 15 11 0 29 -4 40 -9z m775 -29 c0 -5 -9 -7 -20 -4 -11 3 -20 7 -20
9 0 2 9 4 20 4 11 0 20 -4 20 -9z m145 -1 c3 -5 -1 -10 -9 -10 -9 0 -16 5 -16
10 0 6 4 10 9 10 6 0 13 -4 16 -10z m-4022 -21 c3 -13 1 -19 -6 -16 -15 5 -22
37 -9 37 5 0 12 -9 15 -21z m1157 7 c0 -2 -7 -6 -15 -10 -8 -3 -15 -1 -15 4 0
6 7 10 15 10 8 0 15 -2 15 -4z m-1222 -28 c-2 -7 17 -15 45 -20 27 -5 59 -16
72 -24 12 -8 27 -14 31 -13 17 4 44 -13 44 -27 0 -8 7 -14 15 -14 8 0 15 -4
15 -10 0 -5 11 -10 24 -10 13 0 29 -7 36 -15 7 -8 18 -15 25 -15 6 0 22 -9 35
-20 13 -11 26 -20 30 -20 4 0 7 -6 7 -13 0 -8 -12 -14 -29 -14 -15 0 -26 3
-23 5 3 3 -14 14 -37 24 -33 15 -39 21 -28 28 13 8 12 10 -2 10 -10 0 -20 -1
-21 -2 -2 -2 -11 3 -20 11 -11 9 -17 10 -17 2 0 -6 -5 -11 -11 -11 -6 0 -9 6
-6 14 4 10 -7 21 -31 33 -20 10 -50 27 -65 38 -22 14 -33 16 -46 8 -13 -8 -29
-5 -69 15 l-53 26 28 12 c36 16 54 17 51 2z m4142 2 c0 -5 -7 -10 -16 -10 -8
0 -12 5 -9 10 3 6 10 10 16 10 5 0 9 -4 9 -10z m-2946 -8 c2 -4 -5 -9 -17 -9
-17 -2 -19 0 -7 7 18 12 18 12 24 2z m111 -12 c-3 -5 -14 -10 -23 -10 -15 0
-15 2 -2 10 20 13 33 13 25 0z m-1158 -16 c-3 -3 -12 -4 -19 -1 -8 3 -5 6 6 6
11 1 17 -2 13 -5z m608 -24 c0 -16 -4 -28 -10 -27 -5 2 -10 8 -10 13 0 5 -3
14 -7 20 -8 13 0 24 16 24 6 0 11 -13 11 -30z m3410 -8 c-10 -2 -14 -10 -10
-21 4 -13 -3 -20 -29 -28 -42 -13 -46 -10 -46 33 0 30 3 33 33 36 35 3 81 -14
52 -20z m-2835 -2 c0 -5 -4 -10 -10 -10 -5 0 -10 5 -10 10 0 6 5 10 10 10 6 0
10 -4 10 -10z m2340 -4 c0 -3 -4 -8 -10 -11 -5 -3 -10 -1 -10 4 0 6 5 11 10
11 6 0 10 -2 10 -4z m621 -26 c23 -13 27 -55 4 -46 -25 9 -17 -10 10 -22 14
-6 25 -18 25 -27 0 -12 -9 -14 -52 -9 -64 8 -75 14 -23 14 32 0 36 2 25 15 -8
10 -17 12 -24 6 -23 -19 -80 -23 -101 -7 -20 16 -20 16 0 31 11 9 36 20 57 25
20 6 40 15 43 20 8 13 12 12 36 0z m-3864 -6 c-3 -3 -12 -4 -19 -1 -8 3 -5 6
6 6 11 1 17 -2 13 -5z m3548 -24 c-11 -5 -27 -9 -35 -9 -9 0 -8 4 5 9 11 5 27
9 35 9 9 0 8 -4 -5 -9z m-2995 -10 c0 -5 -7 -10 -16 -10 -8 0 -12 5 -9 10 3 6
10 10 16 10 5 0 9 -4 9 -10z m1635 -21 c-5 -15 -1 -19 16 -19 17 0 19 -3 10
-14 -9 -11 -9 -15 1 -19 7 -3 -1 -6 -18 -6 -33 -1 -54 15 -58 46 -2 11 -10 17
-22 15 -15 -2 -16 -1 -5 7 8 5 29 9 48 9 29 0 33 -3 28 -19z m135 11 c0 -5 -2
-10 -4 -10 -3 0 -8 5 -11 10 -3 6 -1 10 4 10 6 0 11 -4 11 -10z m323 -26 c-2
-7 -14 -11 -25 -9 -27 6 -39 18 -13 13 11 -1 20 3 21 10 3 25 5 27 13 13 5 -8
7 -20 4 -27z m854 16 c8 0 25 -8 40 -17 31 -20 63 -27 63 -13 0 6 -4 10 -10
10 -5 0 -10 5 -10 10 0 6 14 10 30 10 17 0 30 -4 30 -8 0 -5 10 -8 21 -8 12 1
24 -4 26 -10 4 -13 -45 -7 -63 8 -8 5 -14 1 -18 -14 -9 -35 -8 -38 13 -38 11
0 22 -4 25 -9 9 -13 -76 8 -99 25 -11 8 -35 24 -52 35 -18 12 -33 26 -33 32 0
7 4 7 12 -1 7 -7 18 -12 25 -12z m-1214 3 c-7 -2 -19 -2 -25 0 -7 3 -2 5 12 5
14 0 19 -2 13 -5z m234 -5 c6 -7 13 -21 16 -30 5 -15 4 -16 -13 -6 -14 9 -16
14 -7 20 8 5 7 8 -5 8 -10 0 -18 5 -18 10 0 14 16 12 27 -2z m-77 -7 c0 -5 -9
-7 -20 -4 -11 3 -20 7 -20 9 0 2 9 4 20 4 11 0 20 -4 20 -9z m1540 -1 c0 -5
-4 -10 -10 -10 -5 0 -10 5 -10 10 0 6 5 10 10 10 6 0 10 -4 10 -10z m-1360
-30 c13 -8 13 -10 -2 -10 -9 0 -20 5 -23 10 -8 13 5 13 25 0z m50 -1 c0 -5 3
-8 8 -5 4 2 16 -2 27 -10 10 -8 14 -14 8 -14 -7 0 -14 4 -18 10 -3 5 -12 7
-19 4 -7 -3 -16 2 -19 10 -4 9 -2 16 3 16 6 0 10 -5 10 -11z m-2020 -53 c-7
-7 -10 -6 -10 1 0 7 -10 10 -25 7 -14 -2 -25 0 -25 6 0 6 5 8 10 5 6 -3 10 -1
10 4 0 6 7 11 15 11 8 0 15 6 16 13 0 6 5 1 10 -12 6 -16 6 -28 -1 -35z m1799
15 c-1 -13 -2 -13 -6 2 -2 9 -9 17 -14 17 -5 0 -9 5 -9 11 0 8 5 8 15 -1 8 -7
14 -20 14 -29z m-2499 -1 c0 -5 -7 -10 -15 -10 -8 0 -15 5 -15 10 0 6 7 10 15
10 8 0 15 -4 15 -10z m2260 0 c-20 -13 -47 -13 -55 0 -4 6 9 10 32 10 28 0 34
-3 23 -10z m690 -37 c16 -9 18 -12 5 -8 -11 4 -32 9 -48 12 -15 3 -30 10 -33
15 -8 12 44 -1 76 -19z m-2211 -4 c-19 -12 -39 -11 -39 2 0 5 4 8 9 4 5 -3 12
-1 16 5 4 6 11 7 17 4 6 -4 5 -10 -3 -15z m2141 -29 c0 -5 -2 -10 -4 -10 -3 0
-8 5 -11 10 -3 6 -1 10 4 10 6 0 11 -4 11 -10z m-390 -20 c0 -5 -2 -10 -4 -10
-3 0 -8 5 -11 10 -3 6 -1 10 4 10 6 0 11 -4 11 -10z m620 0 c0 -5 -4 -10 -10
-10 -5 0 -10 5 -10 10 0 6 5 10 10 10 6 0 10 -4 10 -10z m150 -4 c0 -11 -19
-15 -25 -6 -3 5 1 10 9 10 9 0 16 -2 16 -4z m-2325 -66 c4 -6 -6 -10 -22 -9
-25 0 -26 1 -8 9 11 5 21 9 22 9 1 1 5 -3 8 -9z m215 0 c0 -5 -2 -10 -4 -10
-3 0 -8 5 -11 10 -3 6 -1 10 4 10 6 0 11 -4 11 -10z m777 4 c-3 -3 -12 -4 -19
-1 -8 3 -5 6 6 6 11 1 17 -2 13 -5z m708 -4 c19 -8 19 -9 -2 -9 -12 -1 -25 4
-28 9 -7 12 2 12 30 0z m-1643 -18 c-6 -2 -12 -8 -12 -14 0 -6 7 -8 15 -5 8 4
17 2 20 -3 3 -5 12 -7 20 -3 8 3 15 0 15 -7 0 -6 -4 -8 -10 -5 -5 3 -10 2 -10
-4 0 -16 -65 24 -68 42 -2 12 2 14 20 9 12 -3 17 -7 10 -10z m-95 -17 c0 -8
-4 -15 -9 -15 -10 0 -11 14 -1 23 9 10 10 9 10 -8z m204 -8 c-10 -9 -11 -8 -5
6 3 10 9 15 12 12 3 -3 0 -11 -7 -18z m-1254 -14 c-3 -3 -11 -2 -17 2 -9 6 -9
10 1 16 14 8 27 -7 16 -18z m1118 -4 c-5 -14 -3 -17 9 -13 9 3 16 1 16 -5 0
-6 -3 -10 -7 -10 -21 3 -31 -3 -37 -23 -4 -18 -8 -20 -18 -10 -6 6 -21 12 -31
12 -16 0 -17 3 -7 15 7 8 23 15 37 15 13 0 22 4 18 10 -3 5 -13 6 -22 3 -11
-4 -14 -2 -11 8 3 8 10 14 16 14 5 0 14 3 18 7 12 13 25 -3 19 -23z m340 22
c10 -17 -12 -21 -25 -6 -10 12 -10 15 3 15 9 0 18 -4 22 -9z m456 -10 c-8 -14
-7 -20 2 -24 7 -2 14 -19 15 -37 2 -23 -1 -29 -10 -23 -7 4 -22 6 -33 5 -15
-2 -17 -1 -6 7 8 5 12 15 9 22 -3 8 -6 18 -6 23 0 5 -6 13 -14 17 -11 7 -10
11 2 19 8 5 23 10 33 10 14 0 16 -4 8 -19z m-1083 -8 c2 -7 -3 -13 -12 -13 -9
0 -16 -4 -16 -10 0 -5 -9 -10 -20 -10 -11 0 -20 4 -20 10 0 5 7 6 17 3 11 -4
14 -3 9 5 -4 7 -4 17 -1 23 9 13 37 8 43 -8z m676 -8 c-3 -7 6 -15 23 -20 17
-4 29 -2 31 4 7 20 20 11 27 -17 3 -16 1 -41 -4 -55 -6 -15 -7 -27 -1 -27 5 0
12 10 16 22 3 12 13 28 20 36 8 7 14 19 14 27 0 9 9 12 31 8 37 -5 80 -21 62
-22 -7 -1 -13 -8 -13 -17 0 -11 -6 -15 -20 -11 -11 3 -18 1 -14 -4 3 -5 14 -9
25 -9 28 0 22 -45 -6 -46 -11 0 -31 -5 -45 -11 -14 -6 -32 -7 -40 -3 -23 12
-63 15 -77 7 -8 -5 -15 1 -19 17 -4 19 -11 23 -30 20 -13 -2 -24 0 -24 5 0 6
-6 8 -14 5 -15 -6 -81 24 -73 33 3 3 2 15 -3 28 -8 22 -7 23 28 20 20 -2 41
-4 46 -4 4 -1 6 -8 2 -16 -3 -8 -1 -15 4 -15 6 0 10 9 10 19 0 34 10 49 30 44
10 -3 16 -11 14 -18z m326 -16 c20 -17 21 -19 5 -14 -11 5 -32 9 -47 10 -39 4
-56 17 -32 25 25 9 43 3 74 -21z m215 -8 c-4 -17 -10 -29 -15 -26 -5 3 -11 1
-15 -5 -9 -15 -19 -12 -33 11 -11 17 -11 20 0 13 26 -17 40 -12 51 16 14 37
21 31 12 -9z m-2015 19 c0 -5 -4 -10 -10 -10 -5 0 -10 5 -10 10 0 6 5 10 10
10 6 0 10 -4 10 -10z m990 -11 c0 -5 -9 -9 -20 -9 -11 0 -20 5 -20 11 0 5 5 7
10 4 6 -3 10 -1 10 5 0 6 5 8 10 5 6 -3 10 -10 10 -16z m280 17 c0 -2 -7 -6
-15 -10 -8 -3 -15 -1 -15 4 0 6 7 10 15 10 8 0 15 -2 15 -4z m-80 -23 c0 -5
-11 -8 -25 -8 -14 0 -25 3 -25 8 0 4 11 7 25 7 14 0 25 -3 25 -7z m886 -3 c9
0 12 -4 9 -10 -3 -5 0 -10 7 -11 10 0 10 -2 0 -6 -6 -2 -9 -10 -5 -16 4 -7 0
-8 -11 -4 -10 4 -22 7 -28 7 -6 0 -7 8 -4 17 4 9 1 21 -6 26 -9 6 -8 7 5 3 10
-3 25 -6 33 -6z m-1142 -14 c-6 -15 19 -17 32 -3 12 12 26 -4 15 -17 -8 -9 -4
-12 17 -11 15 1 19 0 10 -2 -15 -4 -15 -6 3 -24 12 -12 17 -24 13 -27 -3 -4
-9 -1 -11 6 -8 20 -26 13 -20 -8 3 -12 1 -17 -5 -14 -5 3 -16 -2 -23 -12 -13
-18 -14 -17 -8 5 5 18 3 22 -7 16 -9 -5 -11 -4 -6 4 20 32 15 56 -14 69 -16 8
-34 11 -39 8 -5 -4 -13 -1 -17 5 -4 7 -3 9 2 6 6 -3 16 -2 24 4 22 13 40 11
34 -5z m306 -17 c0 -4 -8 -9 -18 -11 -12 -4 -18 1 -18 13 0 10 4 15 8 13 4 -3
8 1 8 8 0 9 3 9 10 -2 5 -8 10 -18 10 -21z m-88 -19 c32 0 54 -46 28 -60 -9
-5 -21 -6 -24 -2 -4 4 -13 7 -19 8 -61 6 -63 7 -27 14 33 7 33 8 8 10 -16 1
-32 4 -38 5 -5 1 -14 3 -20 4 -5 0 -10 6 -10 13 0 6 3 9 6 5 4 -3 13 0 21 8
10 11 19 12 33 5 10 -6 29 -10 42 -10z m673 10 c3 -5 1 -10 -4 -10 -6 0 -11 5
-11 10 0 6 2 10 4 10 3 0 8 -4 11 -10z m177 -30 c-5 -38 -18 -40 -16 -2 3 33
2 32 12 32 5 0 7 -13 4 -30z m-1352 10 c13 -8 11 -11 -7 -16 -13 -4 -20 -10
-17 -15 3 -5 -2 -9 -10 -9 -19 0 -20 5 -6 31 12 21 19 23 40 9z m705 -41 c-10
-15 -35 9 -28 27 4 10 0 13 -13 8 -15 -5 -16 -4 -4 5 11 7 19 5 33 -10 10 -10
15 -24 12 -30z m-141 33 c3 -5 -1 -9 -9 -9 -8 0 -12 4 -9 9 3 4 7 8 9 8 2 0 6
-4 9 -8z m-776 -42 c0 -16 -4 -33 -10 -36 -7 -4 -8 -2 -4 4 5 8 -1 12 -16 13
-13 0 -17 3 -10 6 6 2 10 9 6 14 -3 5 0 9 6 9 7 0 10 7 7 14 -4 10 -1 13 7 10
7 -3 13 -18 14 -34z m463 17 c-10 -9 -11 -8 -5 6 3 10 9 15 12 12 3 -3 0 -11
-7 -18z m-124 7 c-3 -3 -12 -4 -19 -1 -8 3 -5 6 6 6 11 1 17 -2 13 -5z m-111
-23 c0 -10 -5 -17 -12 -14 -6 2 -18 -2 -26 -10 -8 -8 -24 -18 -36 -21 -23 -8
-28 -21 -12 -31 14 -9 12 -24 -2 -21 -22 3 -39 17 -33 27 4 5 2 9 -3 9 -5 0
-8 10 -6 23 1 12 3 25 3 29 1 5 4 7 9 7 4 -1 9 0 12 1 18 7 40 7 40 0 0 -4 9
-6 20 -3 11 3 20 9 20 14 0 5 6 9 13 9 7 0 13 -8 13 -19z m1484 9 c0 -5 -4
-10 -10 -10 -5 0 -10 5 -10 10 0 6 5 10 10 10 6 0 10 -4 10 -10z m-1635 -41
c-5 -16 -9 -18 -15 -9 -4 7 -3 19 3 25 16 17 20 11 12 -16z m197 0 c2 -7 17
-7 46 -1 37 9 42 8 42 -8 0 -10 -6 -18 -12 -17 -37 1 -58 -4 -53 -13 3 -5 3
-10 0 -10 -6 0 -55 50 -55 56 0 9 29 3 32 -7z m575 -11 c-3 -8 -6 -5 -6 6 -1
11 2 17 5 13 3 -3 4 -12 1 -19z m-77 2 c0 -5 -5 -10 -11 -10 -5 0 -7 5 -4 10
3 6 8 10 11 10 2 0 4 -4 4 -10z m-783 -16 c-3 -3 -12 -4 -19 -1 -8 3 -5 6 6 6
11 1 17 -2 13 -5z m1748 -33 c3 -5 1 -12 -5 -16 -5 -3 -10 1 -10 9 0 18 6 21
15 7z m-1592 -33 c9 2 17 -2 17 -7 0 -6 -5 -11 -11 -11 -5 0 -7 -6 -3 -12 5
-9 2 -9 -9 1 -14 11 -17 11 -18 0 0 -10 -2 -11 -6 -1 -2 6 -9 10 -14 7 -5 -4
-6 1 -3 9 5 12 -1 16 -22 17 -16 1 -33 1 -38 0 -4 -1 -18 2 -30 6 -17 6 -14 8
19 13 25 3 51 0 70 -10 17 -8 38 -13 48 -12z m1675 -1 c14 4 14 3 2 -5 -16
-12 -30 -7 -29 11 0 9 2 9 5 0 3 -7 13 -9 22 -6z m842 -22 c0 -3 -11 -5 -25
-5 -17 0 -23 4 -19 15 5 11 11 12 25 4 10 -5 19 -12 19 -14z m-1910 -6 c0 -6
-4 -7 -10 -4 -5 3 -10 11 -10 16 0 6 5 7 10 4 6 -3 10 -11 10 -16z m-23 -15
c-3 -3 -12 -4 -19 -1 -8 3 -5 6 6 6 11 1 17 -2 13 -5z"/>
<path d="M2450 2980 c0 -6 7 -10 15 -10 8 0 15 2 15 4 0 2 -7 6 -15 10 -8 3
-15 1 -15 -4z"/>
<path d="M2277 2918 c2 -5 13 -8 24 -8 10 0 19 3 19 8 0 4 -11 7 -24 7 -13 0
-22 -3 -19 -7z"/>
<path d="M2320 2885 c0 -17 18 -19 38 -6 11 7 10 10 -3 15 -26 10 -35 7 -35
-9z"/>
<path d="M1872 2410 c0 -14 2 -19 5 -12 2 6 2 18 0 25 -3 6 -5 1 -5 -13z"/>
<path d="M3330 900 c0 -5 7 -10 16 -10 8 0 12 5 9 10 -3 6 -10 10 -16 10 -5 0
-9 -4 -9 -10z"/>
<path d="M4265 650 c-7 -12 2 -12 30 0 19 8 19 9 -2 9 -12 1 -25 -3 -28 -9z"/>
<path d="M4325 651 c-3 -5 -1 -12 5 -16 5 -3 10 1 10 9 0 18 -6 21 -15 7z"/>
<path d="M1955 291 c-6 -11 13 -26 22 -17 4 3 1 6 -6 6 -7 0 -9 5 -6 10 3 6 4
10 1 10 -3 0 -7 -4 -11 -9z"/>
<path d="M1990 290 c0 -5 5 -10 10 -10 6 0 10 5 10 10 0 6 -4 10 -10 10 -5 0
-10 -4 -10 -10z"/>
<path d="M1970 230 c0 -5 5 -10 10 -10 6 0 10 5 10 10 0 6 -4 10 -10 10 -5 0
-10 -4 -10 -10z"/>
<path d="M900 165 c0 -13 4 -14 20 -5 11 6 20 13 20 15 0 3 -9 5 -20 5 -11 0
-20 -7 -20 -15z"/>
<path d="M2220 3509 c0 -5 5 -7 10 -4 6 3 10 8 10 11 0 2 -4 4 -10 4 -5 0 -10
-5 -10 -11z"/>
<path d="M2243 3485 c0 -15 6 -17 52 -17 55 0 60 3 26 17 -43 19 -78 19 -78 0z"/>
<path d="M2368 3473 c6 -2 18 -2 25 0 6 3 1 5 -13 5 -14 0 -19 -2 -12 -5z"/>
<path d="M2417 3450 c3 -11 12 -20 20 -20 11 0 11 4 3 20 -6 11 -15 20 -19 20
-5 0 -7 -9 -4 -20z"/>
<path d="M2650 3410 c0 -5 5 -10 10 -10 6 0 10 5 10 10 0 6 -4 10 -10 10 -5 0
-10 -4 -10 -10z"/>
<path d="M2755 3410 c3 -5 14 -10 23 -10 15 0 15 2 2 10 -20 13 -33 13 -25 0z"/>
<path d="M2793 3396 c-24 -11 -29 -21 -15 -29 4 -3 15 6 25 19 10 13 17 23 15
23 -2 -1 -13 -6 -25 -13z"/>
<path d="M1800 2910 c-13 -8 -12 -10 3 -10 9 0 17 5 17 10 0 12 -1 12 -20 0z"/>
<path d="M1795 2810 c-3 -5 -1 -10 4 -10 6 0 11 5 11 10 0 6 -2 10 -4 10 -3 0
-8 -4 -11 -10z"/>
<path d="M4445 2738 c-38 -4 -126 -17 -195 -28 -81 -13 -137 -17 -160 -12 -22
5 -48 3 -71 -4 -61 -21 -157 -28 -199 -14 -32 11 -45 10 -77 -2 -28 -11 -45
-12 -66 -4 -21 8 -36 7 -60 -4 -21 -10 -68 -15 -137 -16 -80 0 -114 -5 -142
-19 -34 -17 -41 -17 -75 -4 -32 12 -55 13 -138 4 -88 -10 -170 -6 -195 10 -4
2 -13 -1 -19 -9 -7 -8 -23 -17 -36 -20 -29 -7 -24 -31 13 -60 15 -12 20 -22
14 -28 -15 -15 10 -58 35 -58 12 0 23 -6 25 -12 9 -26 1089 -18 1348 9 30 3
93 7 140 8 47 1 100 3 118 4 l32 1 0 129 c0 158 9 150 -155 129z"/>
<path d="M750 2618 c14 -5 56 -12 93 -13 37 -2 73 -8 80 -14 7 -5 43 -17 81
-27 58 -14 69 -15 77 -3 22 36 -27 62 -90 48 -45 -10 -111 -3 -111 12 0 5 -35
9 -77 8 -64 0 -73 -2 -53 -11z"/>
<path d="M0 2610 c0 -5 7 -10 16 -10 8 0 12 5 9 10 -3 6 -10 10 -16 10 -5 0
-9 -4 -9 -10z"/>
<path d="M2832 2514 c-1 -17 2 -24 11 -21 15 5 16 39 2 44 -6 2 -12 -8 -13
-23z"/>
<path d="M640 2456 c0 -9 5 -16 10 -16 6 0 10 4 10 9 0 6 -4 13 -10 16 -5 3
-10 -1 -10 -9z"/>
<path d="M3936 2345 c-11 -8 -29 -15 -39 -15 -18 0 -17 -3 7 -25 31 -28 52
-31 80 -10 11 8 37 15 58 15 34 0 38 3 38 25 0 24 -2 25 -62 25 -40 -1 -70 -6
-82 -15z"/>
<path d="M3460 2320 c-12 -8 -12 -10 2 -15 20 -8 41 2 33 16 -8 11 -16 11 -35
-1z"/>
<path d="M4560 2170 c0 -5 9 -10 20 -10 11 0 20 5 20 10 0 6 -9 10 -20 10 -11
0 -20 -4 -20 -10z"/>
<path d="M3414 2064 c-19 -41 -54 -67 -77 -59 -21 9 -30 -10 -22 -45 6 -28 25
-43 25 -19 0 21 29 39 64 39 20 0 36 5 36 10 0 6 6 10 14 10 17 0 30 33 22 58
-3 9 -15 23 -25 29 -18 11 -22 9 -37 -23z"/>
<path d="M3318 1823 c7 -3 16 -2 19 1 4 3 -2 6 -13 5 -11 0 -14 -3 -6 -6z"/>
<path d="M450 1500 c0 -5 5 -10 10 -10 6 0 10 5 10 10 0 6 -4 10 -10 10 -5 0
-10 -4 -10 -10z"/>
<path d="M720 1450 c0 -13 18 -22 24 -11 3 5 -1 11 -9 15 -8 3 -15 1 -15 -4z"/>
<path d="M50 1045 c0 -8 -4 -15 -10 -15 -5 0 -10 -4 -10 -10 0 -5 11 -10 25
-10 26 0 34 15 13 23 -10 4 -10 6 0 6 17 1 15 21 -3 21 -8 0 -15 -7 -15 -15z"/>
<path d="M254 925 c4 -12 0 -14 -22 -9 -15 4 -29 7 -32 6 -58 -1 -10 -20 53
-21 51 -1 57 4 30 25 -24 18 -36 17 -29 -1z"/>
<path d="M0 920 c0 -5 19 -10 42 -10 49 0 47 5 -4 14 -24 4 -38 3 -38 -4z"/>
<path d="M455 920 c3 -5 11 -10 16 -10 6 0 7 5 4 10 -3 6 -11 10 -16 10 -6 0
-7 -4 -4 -10z"/>
<path d="M1137 923 c-16 -15 -6 -33 18 -33 28 0 34 24 9 34 -19 7 -19 7 -27
-1z"/>
<path d="M545 890 c3 -5 15 -10 26 -10 10 0 19 5 19 10 0 6 -12 10 -26 10 -14
0 -23 -4 -19 -10z"/>
<path d="M4520 891 c0 -6 9 -11 21 -11 11 0 29 -5 40 -10 11 -6 19 -7 19 -1 0
5 -11 12 -24 15 -13 3 -31 9 -40 12 -9 3 -16 1 -16 -5z"/>
<path d="M610 870 c0 -6 7 -10 15 -10 8 0 15 2 15 4 0 2 -7 6 -15 10 -8 3 -15
1 -15 -4z"/>
<path d="M475 850 c-4 -6 10 -10 34 -10 23 0 41 5 41 10 0 6 -15 10 -34 10
-19 0 -38 -4 -41 -10z"/>
<path d="M875 850 c3 -5 11 -10 16 -10 6 0 7 5 4 10 -3 6 -11 10 -16 10 -6 0
-7 -4 -4 -10z"/>
<path d="M823 835 c0 -8 4 -12 9 -9 5 3 6 10 3 15 -9 13 -12 11 -12 -6z"/>
<path d="M1118 833 c7 -3 16 -2 19 1 4 3 -2 6 -13 5 -11 0 -14 -3 -6 -6z"/>
<path d="M3740 801 c0 -5 -19 -7 -42 -5 -40 4 -41 3 -13 -6 33 -11 75 -5 75
10 0 6 -4 10 -10 10 -5 0 -10 -4 -10 -9z"/>
<path d="M4480 720 c0 -5 12 -10 28 -10 21 0 24 2 12 10 -20 13 -40 13 -40 0z"/>
<path d="M3867 564 c-7 -8 11 -46 27 -56 6 -4 17 -6 23 -3 7 2 18 -4 25 -13 7
-9 21 -23 31 -31 14 -11 17 -11 17 1 0 7 -15 22 -32 33 -32 19 -37 21 -59 24
-5 0 -8 5 -4 10 3 5 1 12 -5 16 -6 4 -8 11 -5 16 7 10 -8 13 -18 3z"/>
<path d="M1236 475 c-8 -23 34 -37 53 -18 12 13 12 16 0 24 -22 14 -46 11 -53
-6z m44 -5 c0 -5 -4 -10 -10 -10 -5 0 -10 5 -10 10 0 6 5 10 10 10 6 0 10 -4
10 -10z"/>
<path d="M3790 461 c0 -6 -7 -11 -15 -11 -8 0 -15 -4 -15 -9 0 -6 12 -6 30 -1
17 5 33 9 35 9 16 2 6 17 -12 19 -13 2 -23 -1 -23 -7z"/>
<path d="M3900 450 c0 -5 5 -10 11 -10 5 0 7 5 4 10 -3 6 -8 10 -11 10 -2 0
-4 -4 -4 -10z"/>
<path d="M1321 424 c0 -11 3 -14 6 -6 3 7 2 16 -1 19 -3 4 -6 -2 -5 -13z"/>
<path d="M3225 430 c-4 -6 -10 -8 -14 -6 -13 8 -34 -12 -28 -27 4 -10 13 -13
26 -10 12 3 28 0 36 -7 9 -8 15 -8 15 -2 0 6 -5 12 -10 14 -6 2 -12 13 -13 26
-1 25 -3 26 -12 12z"/>
<path d="M4165 410 c3 -5 16 -10 28 -9 21 0 21 1 2 9 -28 12 -37 12 -30 0z"/>
<path d="M768 399 c-8 -6 1 -9 25 -9 20 0 37 2 37 4 0 9 -50 12 -62 5z"/>
<path d="M3465 390 c3 -5 8 -10 11 -10 2 0 4 5 4 10 0 6 -5 10 -11 10 -5 0 -7
-4 -4 -10z"/>
<path d="M4405 360 c4 -11 2 -20 -4 -20 -6 0 -11 7 -11 15 0 8 -9 15 -20 15
-29 0 -25 -16 8 -28 74 -29 85 -26 56 16 -19 27 -38 29 -29 2z"/>
<path d="M3576 342 c-3 -6 -1 -14 5 -17 15 -10 25 3 12 16 -7 7 -13 7 -17 1z"/>
<path d="M465 250 c-3 -5 -15 -10 -26 -10 -11 0 -17 -4 -14 -10 3 -5 -1 -10
-10 -10 -9 0 -13 5 -10 10 3 6 -3 10 -14 10 -35 0 -31 -17 7 -28 40 -12 94 -5
71 9 -10 6 -6 11 14 18 15 6 27 13 27 16 0 9 -39 5 -45 -5z"/>
<path d="M70 231 c25 -11 54 -20 65 -20 27 0 -30 25 -76 33 -31 6 -30 5 11
-13z"/>
<path d="M153 233 c9 -2 23 -2 30 0 6 3 -1 5 -18 5 -16 0 -22 -2 -12 -5z"/>
<path d="M4360 210 c0 -5 5 -10 10 -10 6 0 10 5 10 10 0 6 -4 10 -10 10 -5 0
-10 -4 -10 -10z"/>
<path d="M4407 203 c-12 -11 -8 -23 8 -23 8 0 15 7 15 15 0 16 -12 20 -23 8z"/>
<path d="M282 185 c-11 -12 -10 -15 3 -15 8 0 15 7 15 15 0 18 -2 18 -18 0z"/>
<path d="M3963 184 c-3 -8 -1 -20 4 -25 7 -7 12 -5 16 5 4 9 2 16 -4 16 -6 0
-7 5 -4 10 3 6 4 10 0 10 -3 0 -8 -7 -12 -16z"/>
<path d="M2310 160 c11 -9 12 -13 3 -17 -17 -6 -17 -36 -1 -31 18 6 16 50 -2
55 -13 4 -13 3 0 -7z"/>
<path d="M3795 153 c9 -18 -4 -35 -18 -26 -7 4 -16 8 -22 9 -5 1 -21 5 -36 9
-25 6 -25 6 -24 -54 1 -53 -1 -61 -17 -61 -10 0 -18 -7 -18 -15 0 -10 11 -15
35 -15 35 0 50 23 23 33 -7 2 -10 7 -7 11 14 15 37 -6 31 -27 -5 -21 -5 -21
11 -5 9 9 17 21 17 27 0 6 5 11 10 11 6 0 10 -4 10 -8 0 -5 13 -7 30 -4 18 2
27 9 23 15 -4 6 0 8 10 4 10 -3 17 -2 17 3 0 6 4 10 9 10 5 0 7 -9 4 -20 -3
-11 0 -20 6 -20 6 0 11 -7 11 -15 0 -8 7 -15 16 -15 8 0 12 5 9 10 -3 6 1 10
10 10 9 0 13 -4 10 -10 -3 -5 4 -10 15 -10 16 0 20 4 16 16 -3 8 -2 12 4 9 6
-3 10 2 10 12 0 11 5 24 12 31 9 9 6 12 -15 12 -15 0 -27 5 -27 12 0 9 -3 8
-12 -1 -10 -10 -10 -15 -1 -18 8 -3 5 -11 -8 -24 -24 -24 -59 -18 -39 6 7 9
11 17 9 18 -2 1 -21 10 -42 20 -20 9 -36 21 -35 26 2 5 0 8 -4 8 -4 -1 -14 7
-23 18 -9 11 -14 14 -10 8z m-65 -79 c0 -8 -4 -12 -10 -9 -5 3 -10 10 -10 16
0 5 5 9 10 9 6 0 10 -7 10 -16z"/>
<path d="M4250 141 c0 -10 7 -22 16 -25 8 -3 13 -2 9 3 -3 5 -1 11 5 13 6 2 1
9 -10 16 -17 11 -20 10 -20 -7z"/>
<path d="M1676 134 c-8 -22 1 -31 16 -16 9 9 9 15 1 23 -7 7 -12 5 -17 -7z"/>
<path d="M2145 143 c-16 -3 -34 -11 -38 -19 -4 -8 -16 -14 -25 -14 -34 0 -40
-14 -15 -40 16 -17 22 -19 17 -7 -4 10 -1 17 6 17 7 0 18 6 24 14 16 21 86 33
86 15 0 -15 44 -39 72 -39 22 0 24 32 4 49 -11 9 -16 9 -21 0 -6 -8 -10 -7
-16 2 -6 10 -9 11 -9 2 0 -20 -17 -15 -23 7 -3 11 -11 19 -19 19 -7 -1 -26 -4
-43 -6z"/>
<path d="M2340 140 c0 -5 5 -10 11 -10 5 0 7 5 4 10 -3 6 -8 10 -11 10 -2 0
-4 -4 -4 -10z"/>
<path d="M3605 120 c-9 -14 3 -30 22 -30 12 0 13 3 4 13 -6 8 -8 17 -4 20 3 4
1 7 -5 7 -6 0 -14 -4 -17 -10z"/>
<path d="M4560 116 c0 -8 5 -18 10 -21 6 -3 10 1 10 9 0 8 -4 18 -10 21 -5 3
-10 -1 -10 -9z"/>
<path d="M30 110 c0 -6 7 -10 15 -10 19 0 19 6 0 14 -8 3 -15 1 -15 -4z"/>
<path d="M3660 84 c0 -21 4 -33 10 -29 6 4 8 11 5 16 -4 5 -2 9 3 9 6 0 8 9 5
20 -9 33 -23 23 -23 -16z"/>
<path d="M4060 110 c0 -5 5 -10 10 -10 6 0 10 5 10 10 0 6 -4 10 -10 10 -5 0
-10 -4 -10 -10z"/>
<path d="M298 93 c7 -3 16 -2 19 1 4 3 -2 6 -13 5 -11 0 -14 -3 -6 -6z"/>
<path d="M995 90 c3 -5 8 -10 11 -10 2 0 4 5 4 10 0 6 -5 10 -11 10 -5 0 -7
-4 -4 -10z"/>
<path d="M1638 93 c7 -3 16 -2 19 1 4 3 -2 6 -13 5 -11 0 -14 -3 -6 -6z"/>
<path d="M4155 90 c-3 -5 -1 -10 4 -10 6 0 11 5 11 10 0 6 -2 10 -4 10 -3 0
-8 -4 -11 -10z"/>
<path d="M1665 80 c-13 -6 -15 -9 -5 -9 8 0 22 4 30 9 18 12 2 12 -25 0z"/>
<path d="M370 70 c8 -5 24 -10 35 -10 17 0 17 2 5 10 -8 5 -24 10 -35 10 -17
0 -17 -2 -5 -10z"/>
<path d="M4455 59 c-8 -25 -6 -27 23 -20 23 6 23 6 3 23 -19 16 -20 16 -26 -3z"/>
<path d="M1600 55 c0 -8 8 -15 18 -15 10 0 19 7 19 15 0 8 -9 15 -19 15 -10 0
-18 -7 -18 -15z"/>
<path d="M4310 60 c0 -5 5 -10 11 -10 5 0 7 5 4 10 -3 6 -8 10 -11 10 -2 0 -4
-4 -4 -10z"/>
<path d="M213 43 c9 -2 17 -9 17 -14 0 -5 4 -9 8 -9 5 0 9 7 9 15 0 10 -9 15
-26 14 -17 -1 -20 -3 -8 -6z"/>
<path d="M710 41 c0 -6 4 -13 10 -16 6 -3 7 1 4 9 -7 18 -14 21 -14 7z"/>
<path d="M1942 18 c7 -20 48 -23 48 -4 0 11 -9 16 -26 16 -16 0 -24 -5 -22
-12z"/>
<path d="M3821 26 c12 -10 60 -16 54 -6 -3 5 -18 10 -32 10 -15 0 -24 -2 -22
-4z"/>
<path d="M4106 15 c-3 -8 -1 -15 4 -15 6 0 10 7 10 15 0 19 -6 19 -14 0z"/>
<path d="M4500 23 c14 -3 28 -10 32 -16 4 -6 10 -8 13 -5 14 13 -7 28 -38 27
-28 -2 -29 -2 -7 -6z"/>
<path d="M1004 9 c-3 -5 18 -9 47 -9 29 0 50 3 47 6 -10 10 -88 13 -94 3z"/>
<path d="M2420 10 c0 -5 7 -10 16 -10 8 0 12 5 9 10 -3 6 -10 10 -16 10 -5 0
-9 -4 -9 -10z"/>
<path d="M3600 10 c0 -5 5 -10 10 -10 6 0 10 5 10 10 0 6 -4 10 -10 10 -5 0
-10 -4 -10 -10z"/>
<path d="M108 3 c7 -3 16 -2 19 1 4 3 -2 6 -13 5 -11 0 -14 -3 -6 -6z"/>
<path d="M1728 3 c6 -2 18 -2 25 0 6 3 1 5 -13 5 -14 0 -19 -2 -12 -5z"/>
</g>
</svg>
